<?xml version="1.0" encoding="UTF-8"?>
<svg width="358px" height="355px" viewBox="0 0 358 355" version="1.1" xmlns="http://www.w3.org/2000/svg" xmlns:xlink="http://www.w3.org/1999/xlink">
    <!-- Generator: Sketch 51.2 (57519) - http://www.bohemiancoding.com/sketch -->
    <title>logo</title>
    <desc>Created with Sketch.</desc>
    <defs>
        <ellipse id="path-1" cx="176" cy="174.5" rx="176" ry="174.5"></ellipse>
    </defs>
    <g id="homepage" stroke="none" stroke-width="1" fill="none" fill-rule="evenodd">
        <g id="HP-Desktop-2" transform="translate(-835.000000, -177.000000)">
            <g id="header" transform="translate(-136.000000, -3.000000)">
                <g id="header-content">
                    <g id="logo" transform="translate(974.000000, 183.000000)">
                        <g id="background">
                            <mask id="mask-2" fill="white">
                                <use xlink:href="#path-1"></use>
                            </mask>
                            <ellipse stroke="#444444" stroke-width="3" cx="176" cy="174.5" rx="177.5" ry="176"></ellipse>
                            <polygon id="Path-3" fill="#FBF9CB" mask="url(#mask-2)" points="7.67179487 243.215026 362.830769 243.215026 362.830769 372.959845 17.1487179 372.959845"></polygon>
                            <polygon id="Path-2" fill="#EEECD0" mask="url(#mask-2)" points="75.8153846 243.215026 155.241026 417.262953 350.194872 351.260363 388.553846 297.915803 278.441026 243.215026"></polygon>
                        </g>
                        <g id="base" transform="translate(73.000000, 87.000000)" fill-rule="nonzero">
                            <path d="M171.28847,37.0558956 C171.570969,36.3968001 171.194304,35.9260177 171.005972,35.4552352 C169.687644,31.8772885 168.369316,28.3934983 166.956821,24.8155516 C166.580156,23.9681431 166.862655,23.7798302 167.615985,23.5915172 C172.324299,22.2733263 176.938447,20.8609789 181.646762,19.4486315 C182.117593,19.2603185 182.588424,19.354475 183.059256,19.542788 C187.861736,21.7083873 192.664217,23.8739867 197.560864,26.039586 C198.031695,26.227899 198.220028,26.5103684 198.125861,27.0753074 C195.960037,37.903304 193.982545,48.7313006 192.099219,59.6534537 C192.005053,60.4067057 192.099219,60.8774881 192.664217,61.4424271 C196.525034,65.8677822 200.480018,70.3872939 204.340836,74.812649 C204.811667,75.377588 205,75.8483704 205,76.6016224 C205,100.799841 204.905834,124.998059 205,149.102121 C205,156.540484 199.350023,162.189874 191.910887,162.095717 C178.915939,162.001561 165.826826,162.095717 152.831879,162.001561 C151.890216,162.001561 151.607717,162.189874 151.325218,163.131439 C149.347726,170.663958 142.66192,175.842565 134.940285,175.936722 C125.146991,175.936722 115.259531,175.936722 105.466238,175.936722 C104.995407,175.936722 104.524575,175.842565 104.053744,175.654252 C101.228755,174.336061 98.4037667,173.01787 95.5787781,171.69968 C94.9196141,171.41721 94.7312816,171.511367 94.4487827,172.170462 C93.0362885,175.277626 89.8346348,176.595817 86.256316,175.748409 C83.4313275,175.089313 81.4538356,172.452932 81.4538356,169.345767 C81.4538356,167.65095 81.4538356,166.05029 81.4538356,164.355473 C81.4538356,163.790534 81.3596693,163.508065 80.7005053,163.508065 C73.5438677,163.508065 66.2930638,163.508065 59.1364263,163.508065 C58.6655949,163.508065 58.2889297,163.602221 57.9122646,163.884691 C54.7106109,165.767821 51.414791,167.556794 48.2131373,169.439924 C47.7423059,169.722393 47.1773082,169.910706 46.6123105,169.910706 C42.7514929,169.910706 38.8906752,169.910706 35.1240239,169.910706 C33.4290308,169.910706 32.7698668,169.251611 32.7698668,167.556794 C32.7698668,166.05029 32.6757005,164.637943 32.7698668,163.131439 C32.7698668,162.28403 32.4873679,162.095717 31.7340377,162.095717 C25.4248966,162.095717 19.1157556,162.095717 12.7124483,162.095717 C6.77997244,162.095717 2.07165825,158.517771 0.470831419,152.962538 C0.0941662839,151.738503 0,150.514469 0,149.290434 C0,124.998059 0,100.799841 0,76.5074659 C0,75.8483704 0.188332568,75.2834315 0.659163987,74.812649 C14.0307763,59.5592972 27.3082223,44.211789 40.6798346,28.9584372 C42.8456592,26.5103684 45.3881488,25.1921775 48.6839688,25.286334 C52.3564538,25.3804905 56.0289389,25.0980211 59.701424,25.474647 C60.0780891,25.474647 60.2664217,25.3804905 60.360588,25.0980211 C64.3155719,17.1888757 71.001378,12.1044251 78.7230133,8.14985244 C85.3146532,4.76021872 92.2829582,2.68877589 99.5337621,1.37058499 C100.09876,1.2764285 100.381259,1.37058499 100.475425,1.93552395 C100.757924,2.87708887 101.134589,3.81865379 101.417088,4.76021872 C102.829582,9.18557386 107.820395,11.6336427 112.152044,9.93882579 C112.717042,9.75051281 112.999541,9.46804333 112.811208,8.71479139 C112.528709,7.58491349 112.24621,6.36087909 112.528709,5.13684469 C112.905374,3.25371484 114.223702,1.74721096 116.107028,1.37058499 C118.461185,0.899802532 120.909508,0.42902007 123.357832,0.0523941012 C125.617823,-0.324231868 127.877814,1.37058499 128.348645,3.81865379 C129.196141,8.05569595 129.949472,12.2927381 130.702802,16.5297803 C131.079467,18.7895361 131.550299,21.0492919 131.926964,23.3090477 C132.586128,26.6045249 130.985301,28.9584372 127.689481,29.5233762 C125.711989,29.9000022 123.734497,30.1824716 121.662839,30.5590976 C119.402848,30.9357236 117.33119,29.9941587 116.389527,27.8285593 C116.012862,26.9811509 115.636197,26.8869944 114.977033,27.1694639 C112.622876,27.9227158 111.022049,30.4649411 111.49288,32.9130099 C111.681213,33.9487313 111.775379,35.0786092 111.963712,36.1143307 C112.057878,36.6792696 111.869545,36.9617391 111.304548,37.0558956 C110.927882,37.0558956 110.457051,37.1500521 110.080386,37.2442086 C108.291226,37.6208345 108.291226,37.6208345 108.573725,39.3156514 C108.856224,41.0104683 109.138723,42.6111286 109.421222,44.3059455 C109.515388,44.9650409 109.703721,45.2475104 110.362885,45.1533539 C115.071199,45.1533539 119.779513,45.1533539 124.487827,45.1533539 C125.052825,45.1533539 125.335324,44.9650409 125.711989,44.588415 C130.231971,39.4098079 134.751952,34.3253573 139.177768,29.0525937 C141.437758,26.4162119 144.074414,25.0980211 147.558567,25.1921775 C150.571888,25.286334 153.585209,25.1921775 156.59853,25.1921775 C159.517685,25.1921775 161.966008,26.227899 163.849334,28.4876548 C166.391824,31.406506 168.840147,34.2312008 171.28847,37.0558956 Z M94.9196141,55.2280986 C94.6371153,53.5332817 94.3546164,51.9326214 94.1662839,50.2378045 C94.0721176,49.5787091 93.7896187,49.3903961 93.1304548,49.3903961 C90.1171337,49.3903961 87.1038126,49.3903961 84.0904915,49.3903961 C83.9021589,49.3903961 83.6196601,49.2020831 83.5254938,49.6728656 C85.1263206,51.5559954 86.8213137,53.3449688 88.5163068,55.2280986 C90.1171337,57.1112284 91.7179605,58.9002018 93.224621,60.7833316 C93.883785,61.5365836 94.542949,61.8190531 95.3904456,61.7248966 C95.9554433,61.7248966 96.1437758,61.6307401 95.9554433,60.9716446 C95.5787781,59.0885148 95.202113,57.1112284 94.9196141,55.2280986 Z M103.39458,68.0333816 C102.735416,67.9392251 102.170418,68.2216945 101.511254,68.315851 C101.322921,68.315851 101.040423,68.4100075 101.134589,68.5983205 C101.417088,69.257416 101.134589,69.9165114 101.60542,70.4814504 C102.547083,71.5171718 103.488746,72.5528932 104.336243,73.5886146 C104.90124,74.3418665 105.372072,75.377588 106.313734,75.5659009 C107.632062,75.7542139 109.044557,75.5659009 110.362885,75.6600574 C110.73955,75.6600574 110.927882,75.4717444 110.833716,75.0951185 C110.362885,72.4587367 109.892053,69.8223549 109.421222,67.2801296 C109.327056,66.9976601 109.232889,66.7151907 108.762058,66.8093472 C107.161231,67.1859731 105.277905,67.6567556 103.39458,68.0333816 Z M81.4538356,157.293736 C81.4538356,156.728797 81.4538356,156.163858 81.5480018,155.598919 C81.6421681,154.657354 81.3596693,154.374885 80.4180064,154.469041 C74.7680294,154.469041 69.0238861,154.469041 63.373909,154.469041 C60.5489205,154.469041 60.5489205,154.469041 60.8314194,157.293736 C60.8314194,157.670362 60.8314194,157.952832 60.7372531,158.329458 C60.5489205,159.459336 61.019752,159.835962 62.1497474,159.835962 C67.7997244,159.741805 73.5438677,159.835962 79.1938447,159.835962 C81.6421681,159.741805 81.6421681,159.741805 81.4538356,157.293736 Z M85.597152,165.485351 C85.597152,166.897698 85.5029858,168.310046 85.597152,169.628237 C85.6913183,171.228897 86.7271475,171.982149 88.4221406,171.982149 C90.0229674,171.982149 90.9646302,171.040584 90.9646302,169.53408 C90.9646302,168.215889 90.9646302,166.803542 90.9646302,165.485351 C90.9646302,160.777526 90.9646302,156.069702 90.9646302,151.456034 C90.9646302,150.043686 91.0587965,148.631339 91.0587965,147.313148 C91.0587965,145.712488 90.1171337,144.865079 88.4221406,144.865079 C86.7271475,144.865079 85.6913183,145.618331 85.597152,147.218992 C85.5029858,148.631339 85.597152,150.043686 85.597152,151.456034 C85.597152,156.069702 85.597152,160.777526 85.597152,165.485351 Z M121.474506,26.6986814 C123.169499,26.4162119 124.770326,26.1337425 126.465319,25.851273 C128.160312,25.5688035 128.254479,25.3804905 127.97198,23.6856737 C127.501148,21.1434484 127.124483,18.6953796 126.653652,16.1531543 C126.18282,13.422616 125.617823,10.7862342 125.146991,8.05569595 C125.146991,6.92581804 124.770326,5.79594013 124.581994,4.66606222 C124.487827,4.00696678 124.111162,3.7244973 123.357832,3.91281029 C121.568672,4.28943626 119.779513,4.57190573 117.990354,4.9485317 C116.201194,5.23100118 116.107028,5.41931416 116.389527,7.20828752 C117.519522,13.3284595 118.649518,19.542788 119.779513,25.66296 C119.873679,26.8869944 120.250345,27.0753074 121.474506,26.6986814 Z M144.921911,149.384591 C142.944419,146.748209 140.11943,145.335862 137.011943,144.676766 C136.541112,144.58261 136.352779,144.676766 136.352779,145.241705 C136.352779,147.218992 136.352779,149.196278 136.352779,151.173564 C136.352779,156.163858 136.352779,161.248309 136.352779,166.238603 C136.352779,167.93342 136.352779,169.628237 136.258613,171.323054 C136.258613,171.982149 136.446945,172.076306 137.011943,171.982149 C143.321084,171.040584 148.311897,164.732099 147.935232,158.423614 C148.123565,155.03398 147.181902,152.020973 144.921911,149.384591 Z M102.923748,63.9846524 C104.712908,63.6080264 106.502067,63.3255569 108.19706,62.948931 C108.856224,62.8547745 108.762058,62.4781485 108.667892,62.007366 C107.349564,54.3806902 106.031236,46.8481708 104.712908,39.2214949 C104.618741,38.468243 104.242076,38.27993 103.582912,38.468243 C101.982085,38.7507124 100.381259,39.1273384 98.7804318,39.4098079 C98.1212678,39.5039644 97.3679375,39.6922774 96.7087735,39.7864339 C96.2379421,39.8805904 96.0496096,39.9747468 96.2379421,40.5396858 C96.4262747,41.4812507 96.6146073,42.4228156 96.7087735,43.3643806 C97.8387689,49.6728656 98.8745981,55.887194 100.004593,62.195679 C100.475425,64.7379043 100.381259,64.7379043 102.923748,63.9846524 Z M36.6306844,157.293736 C36.6306844,159.930118 36.6306844,162.5665 36.5365181,165.202882 C36.5365181,165.956134 36.7248507,166.144447 37.478181,166.144447 C40.2090032,166.144447 42.9398254,166.144447 45.6706477,166.144447 C46.2356454,166.144447 46.7064768,165.956134 47.1773082,165.673664 C49.6256316,164.261317 52.073955,162.660656 54.7106109,161.436622 C56.6881029,160.495057 57.1589343,159.271023 56.7822692,157.293736 C56.7822692,156.446328 56.7822692,155.598919 56.8764355,154.845667 C56.9706017,154.092416 56.6881029,153.71579 56.0289389,153.339164 C53.0156178,151.738503 50.096463,149.94953 47.0831419,148.254713 C46.8006431,148.0664 46.5181442,147.878087 46.1414791,147.878087 C43.128158,147.878087 40.1148369,147.878087 37.1015158,147.878087 C36.7248507,147.878087 36.4423519,147.972244 36.4423519,148.443026 C36.5365181,151.456034 36.6306844,154.374885 36.6306844,157.293736 Z M111.398714,55.2280986 C111.681213,57.1112284 112.057878,58.9943583 112.340377,60.8774881 C112.434543,61.5365836 112.717042,61.7248966 113.376206,61.7248966 C124.393661,61.7248966 135.31695,61.7248966 146.334405,61.7248966 C149.818558,61.7248966 152.54938,58.6177323 152.266881,55.1339421 C151.890216,51.6501519 149.441893,49.2962396 145.863574,49.2962396 C134.375287,49.2962396 122.887,49.2962396 111.398714,49.2962396 C111.210381,49.2962396 111.116215,49.2962396 110.927882,49.2962396 C110.457051,49.2962396 110.268718,49.3903961 110.362885,49.8611785 C110.73955,51.7443084 111.116215,53.4391252 111.398714,55.2280986 Z M196.336702,157.105423 C196.430868,157.011267 196.619201,157.011267 196.713367,156.91711 C199.632522,155.128137 200.95085,152.585912 200.95085,149.196278 C200.95085,126.410407 200.95085,103.718692 200.95085,80.932821 C200.95085,80.744508 200.95085,80.4620385 200.95085,80.2737256 C200.95085,79.8029431 200.762517,79.6146301 200.291686,79.6146301 C198.973358,79.7087866 197.65503,79.7087866 196.336702,79.7087866 C195.960037,79.7087866 195.583372,79.6146301 195.206706,79.6146301 C162.531006,79.6146301 129.761139,79.6146301 97.0854387,79.6146301 C95.6729444,79.6146301 95.6729444,79.6146301 95.6729444,81.121134 C95.6729444,96.4686422 95.6729444,111.721994 95.6729444,127.069502 C95.6729444,127.446128 95.6729444,127.916911 95.7671107,128.293537 C95.7671107,133.5663 95.7671107,138.744907 95.6729444,144.017671 C95.6729444,144.865079 96.0496096,144.676766 96.6146073,144.394297 C99.0629306,143.264419 101.511254,142.134541 103.959577,140.910507 C104.524575,140.628037 105.089573,140.533881 105.654571,140.533881 C115.165365,140.533881 124.67616,140.533881 134.092788,140.533881 C135.599449,140.533881 137.106109,140.628037 138.61277,141.004663 C143.791915,142.228697 147.652733,145.335862 150.195223,149.94953 C151.231052,152.209286 151.890216,154.563198 151.984382,157.011267 C151.984382,157.858675 152.266881,157.952832 153.020211,157.952832 C166.109325,157.952832 179.104272,157.952832 192.193385,157.952832 C193.511713,158.141145 195.018374,157.952832 196.336702,157.105423 Z M95.1079467,153.527477 C95.1079467,156.446328 95.1079467,159.365179 95.1079467,162.28403 C95.1079467,163.696378 95.1079467,165.108725 95.0137804,166.521073 C95.0137804,167.180168 95.202113,167.462637 95.7671107,167.65095 C98.7804318,168.969141 101.793753,170.381489 104.807074,171.793836 C105.372072,172.076306 105.937069,172.170462 106.502067,172.170462 C111.398714,172.170462 116.201194,172.170462 121.097841,172.170462 C124.581994,172.170462 128.066146,172.170462 131.550299,172.170462 C132.209463,172.170462 132.586128,172.170462 132.491961,171.323054 C132.397795,169.722393 132.491961,168.121733 132.397795,166.521073 C132.397795,161.436622 132.397795,156.352171 132.397795,151.267721 C132.397795,149.478747 132.397795,147.689774 132.491961,145.900801 C132.491961,144.959236 132.303629,144.58261 131.2678,144.58261 C125.335324,144.676766 119.308682,144.865079 113.376206,144.58261 C108.102894,144.30014 103.112081,144.959236 98.5920992,147.878087 C98.5920992,147.878087 98.4979329,147.878087 98.4979329,147.878087 C94.8254479,149.478747 94.8254479,149.478747 95.1079467,153.527477 Z M113.941203,15.8706848 C113.847037,15.4940588 113.752871,15.1174329 113.752871,14.7408069 C113.752871,13.799242 113.470372,13.610929 112.528709,13.8933985 C106.596233,15.6823718 100.287092,12.6693641 97.9329352,6.83166155 C97.5562701,5.98425312 97.2737712,5.79594013 96.3321084,5.98425312 C93.1304548,6.73750506 90.0229674,7.58491349 87.0096463,8.80894789 C79.947175,11.4453297 73.5438677,15.0232764 68.2705558,20.4843529 C66.7638953,22.0850133 65.4455673,23.8739867 64.3155719,25.851273 C64.033073,26.4162119 63.6564079,26.9811509 64.1272393,27.5460899 C65.0689022,28.6759678 66.1047313,29.7116892 67.0463941,30.8415671 C67.2347267,31.1240366 67.4230593,31.2181931 67.7055581,30.9357236 C68.5530547,29.9941587 69.5888838,29.3350632 70.5305466,28.5818113 C70.8130455,28.4876548 71.0955443,28.3934983 71.3780432,28.2051853 C78.8171796,24.3447691 87.7629766,27.5460899 91.0587965,35.2669222 C91.4354616,36.1143307 91.8121268,36.3026436 92.7537896,36.1143307 C96.9912724,35.2669222 101.322921,34.5136703 105.560404,33.7604184 C107.255397,33.4779489 107.349564,33.4779489 107.349564,31.783132 C107.349564,31.5006625 107.349564,31.2181931 107.44373,31.0298801 C107.914561,27.2636204 110.551217,24.3447691 114.317869,23.4032042 C115.071199,23.2148912 115.259531,23.0265782 115.071199,22.1791698 C114.694534,20.107727 114.317869,17.9421276 113.941203,15.8706848 Z M172.889297,29.4292197 C174.678457,34.1370443 176.37345,38.7507124 178.162609,43.3643806 C178.445108,44.1176325 178.256775,44.3059455 177.597611,44.400102 C171.947634,45.4358234 166.203491,46.5657013 160.553514,47.6014227 C159.611851,47.7897357 159.611851,47.9780487 159.988516,48.8254571 C162.342673,53.8157512 164.696831,58.9002018 167.050988,63.8904959 C167.804318,65.4911563 167.804318,65.4911563 166.015158,65.7736257 C159.988516,66.9035036 153.961874,68.0333816 148.029398,69.1632595 C147.464401,69.257416 147.370234,69.4457289 147.652733,70.0106679 C148.406063,71.5171718 149.159394,73.0236756 149.818558,74.624336 C150.101056,75.377588 150.571888,75.6600574 151.419384,75.6600574 C160.082683,75.6600574 168.840147,75.6600574 177.503445,75.6600574 C177.88011,75.6600574 178.162609,75.6600574 178.539274,75.5659009 C180.610932,75.5659009 182.776757,75.5659009 184.848415,75.6600574 C185.601746,75.6600574 185.884244,75.377588 185.978411,74.624336 C187.108406,67.4684426 188.238401,60.3125492 189.462563,53.1566558 C190.875057,45.2475104 192.381718,37.2442086 193.888379,29.3350632 C193.982545,28.7701243 193.888379,28.4876548 193.323381,28.2051853 C189.839228,26.6986814 186.355076,25.0980211 182.96509,23.5915172 C182.400092,23.3090477 181.92926,23.4032042 181.458429,23.4973607 C179.198438,24.1564561 177.032614,24.8155516 174.772623,25.474647 C173.83096,25.7571165 172.418466,25.7571165 172.041801,26.5103684 C171.570969,27.3577769 172.512632,28.3934983 172.889297,29.4292197 C172.889297,29.4292197 172.889297,29.4292197 172.889297,29.4292197 Z M50.8497933,30.7474106 C48.5898025,28.7701243 46.0473128,29.0525937 43.9756546,31.406506 C30.8865411,46.4715448 17.7974277,61.4424271 4.70831419,76.4133094 C4.23748277,76.9782483 3.95498392,77.5431873 3.95498392,78.2964392 C3.95498392,101.835562 3.95498392,125.374685 3.95498392,148.913808 C3.95498392,149.572904 3.95498392,150.231999 4.04915021,150.985251 C4.51998163,154.469041 7.25080386,157.482049 10.6407901,157.952832 C11.2057878,158.235301 11.7707855,158.141145 12.4299495,158.141145 C18.8332568,158.141145 25.2365641,158.141145 31.6398714,158.141145 C32.4873679,158.141145 32.6757005,157.858675 32.6757005,157.011267 C32.6757005,153.527477 32.6757005,150.043686 32.6757005,146.46574 C32.6757005,144.58261 33.2406982,144.017671 35.1240239,144.017671 C38.8906752,144.017671 42.6573266,144.017671 46.423978,144.017671 C47.0831419,144.017671 47.6481396,144.205984 48.2131373,144.488453 C51.414791,146.277427 54.5222784,148.0664 57.723932,149.855373 C58.1947634,150.137843 58.6655949,150.514469 59.3247588,150.514469 C66.4813964,150.514469 73.5438677,150.514469 80.7005053,150.514469 C81.265503,150.514469 81.4538356,150.326156 81.4538356,149.761217 C81.4538356,148.913808 81.4538356,148.0664 81.4538356,147.124835 C81.5480018,143.546888 83.9021589,141.004663 87.4804777,140.628037 C88.7988057,140.533881 90.0229674,140.722194 91.3412954,141.09882 C91.3412954,136.579308 91.3412954,132.059796 91.3412954,127.540285 C91.3412954,127.163659 91.3412954,126.692876 91.3412954,126.31625 C91.3412954,111.251212 91.3412954,96.0920163 91.3412954,81.0269775 C91.3412954,76.9782483 91.3412954,76.9782483 88.6104731,73.8710841 C78.628847,62.383992 68.5530547,50.8969 58.5714286,39.4098079 C56.0289389,36.5851131 53.5806155,33.5721054 50.8497933,30.7474106 Z M151.231052,64.7379043 C154.903537,64.0788089 158.481856,63.3255569 162.248507,62.6664615 C159.517685,56.7346025 156.786863,50.8969 154.05604,45.0591974 C156.410198,44.588415 158.670188,44.1176325 161.024345,43.7410065 C160.64768,43.2702241 160.459348,42.9877546 160.176849,42.7052851 C156.975195,39.0331819 153.867708,35.4552352 150.666054,31.783132 C147.935232,28.5818113 145.20441,28.5818113 142.473588,31.783132 C138.801102,36.0201742 135.128617,40.2572163 131.456132,44.4942585 C131.2678,44.6825715 130.985301,44.8708844 131.079467,45.2475104 C136.07028,45.2475104 141.061093,45.1533539 146.051906,45.2475104 C150.383555,45.3416669 153.679375,47.3189532 155.468535,51.2735259 C157.257694,55.2280986 156.59853,58.9002018 153.867708,62.195679 C153.114378,63.2314004 152.078548,63.8904959 151.231052,64.7379043 Z M144.921911,65.9619387 C144.921911,65.8677822 144.921911,65.8677822 144.921911,65.7736257 C144.451079,65.7736257 144.074414,65.7736257 143.603583,65.7736257 C133.998622,65.7736257 124.299495,65.7736257 114.694534,65.7736257 C114.412035,65.7736257 114.129536,65.7736257 113.941203,65.7736257 C113.376206,65.6794692 113.28204,65.9619387 113.376206,66.4327212 C113.847037,69.1632595 114.317869,71.9879542 114.7887,74.7184925 C114.882866,75.377588 115.165365,75.5659009 115.824529,75.5659009 C125.617823,75.5659009 135.31695,75.5659009 145.110243,75.5659009 C146.051906,75.5659009 145.95774,75.189275 145.675241,74.624336 C144.451079,72.1762672 143.321084,69.6340419 142.096922,67.1859731 C141.814424,66.6210342 141.720257,66.4327212 142.473588,66.3385647 C143.226918,66.3385647 144.074414,66.1502517 144.921911,65.9619387 Z M55.2756086,29.4292197 C55.4639412,29.7116892 55.5581075,29.8058457 55.6522738,29.9941587 C68.7413872,45.0591974 81.8305007,60.0300797 94.9196141,75.0951185 C95.1079467,75.2834315 95.2962793,75.6600574 95.5787781,75.6600574 C97.179605,75.6600574 98.7804318,75.6600574 100.381259,75.6600574 C100.287092,75.0951185 99.9104272,74.9068055 99.7220946,74.624336 C97.8387689,72.4587367 95.9554433,70.2931374 94.0721176,68.127538 C83.4313275,55.887194 72.7905374,43.64685 62.0555811,31.5006625 C61.1139182,30.3707846 59.8897565,29.6175327 58.383096,29.5233762 C57.5355994,29.4292197 56.4997703,29.4292197 55.2756086,29.4292197 Z M86.3504823,45.2475104 C88.4221406,45.2475104 90.3996325,45.2475104 92.4712908,45.2475104 C93.0362885,45.2475104 93.224621,45.1533539 93.1304548,44.4942585 C92.8479559,43.3643806 92.7537896,42.2345027 92.5654571,41.1987812 C92.4712908,40.7279988 92.2829582,40.5396858 91.7179605,40.6338423 C90.7762977,40.8221553 89.552136,41.4812507 88.9871383,40.9163118 C88.3279743,40.4455293 88.3279743,39.1273384 88.0454754,38.1857735 C88.0454754,38.091617 88.0454754,37.9974605 87.9513091,37.8091475 C85.7854846,30.2766281 76.1805237,27.8285593 70.7188792,33.4779489 C70.2480478,33.9487313 70.1538815,34.2312008 70.6247129,34.7961398 C73.4497014,37.9974605 76.2746899,41.1987812 79.0996785,44.4942585 C79.4763436,44.9650409 79.947175,45.1533539 80.5121727,45.1533539 C82.4896647,45.2475104 84.4671566,45.2475104 86.3504823,45.2475104 Z M154.244373,29.4292197 C154.338539,29.6175327 154.338539,29.7116892 154.338539,29.8058457 C158.011024,34.0428878 161.683509,38.1857735 165.261828,42.4228156 C165.638493,42.7994416 165.920992,42.7994416 166.391824,42.7052851 C167.615985,42.5169721 168.840147,42.2345027 170.064309,41.9520332 C169.970142,41.7637202 169.875976,41.5754072 169.78181,41.4812507 C166.768489,37.9974605 163.755168,34.5136703 160.64768,31.0298801 C159.800184,29.9941587 158.670188,29.4292197 157.257694,29.4292197 C156.410198,29.4292197 155.374368,29.4292197 154.244373,29.4292197 Z M191.157556,65.9619387 C190.404226,68.7866335 189.650896,71.5171718 192.475884,73.5886146 C193.040882,73.9652406 193.417547,74.624336 193.888379,75.189275 C194.076711,75.377588 194.265044,75.6600574 194.641709,75.6600574 C196.242536,75.6600574 197.749196,75.6600574 199.444189,75.6600574 C199.255857,75.377588 199.16169,75.2834315 199.067524,75.0951185 C196.525034,72.0821107 193.888379,69.1632595 191.157556,65.9619387 Z" id="Shape" fill="#020202"></path>
                            <path d="M90.30837,127.327875 C90.30837,131.850338 90.30837,136.278583 90.30837,140.895264 C88.9953685,140.518392 87.7761529,140.235738 86.4631513,140.424174 C82.8992901,140.801046 80.5546446,143.344932 80.4608587,146.925215 C80.4608587,147.773176 80.4608587,148.621138 80.4608587,149.563318 C80.4608587,150.128626 80.2732871,150.317062 79.7105722,150.317062 C72.5828497,150.317062 65.5489131,150.317062 58.4211906,150.317062 C57.7646899,150.317062 57.2957607,149.94019 56.8268316,149.657536 C53.6381137,147.867394 50.5431816,146.077253 47.3544636,144.287111 C46.7917487,143.910239 46.2290338,143.816021 45.572533,143.816021 C41.8211001,143.816021 38.0696673,143.816021 34.3182344,143.816021 C32.442518,143.816021 31.879803,144.381329 31.879803,146.265689 C31.879803,149.751754 31.879803,153.237819 31.879803,156.818102 C31.879803,157.666064 31.6922314,157.948718 30.848159,157.948718 C24.4707231,157.948718 18.0932872,157.948718 11.7158513,157.948718 C11.1531364,157.948718 10.4966356,157.948718 9.9339207,157.760282 C9.9339207,157.477628 9.9339207,157.194974 9.9339207,156.818102 C9.9339207,137.691853 9.9339207,118.565604 9.9339207,99.5335722 C9.9339207,91.9019161 9.9339207,84.27026 9.9339207,76.7328218 C10.4028498,76.6386038 10.6842073,77.0154758 11.0593506,77.2039117 C15.6548558,80.124669 20.1565753,83.0454263 24.7520806,85.9661836 C30.9419448,89.9233386 37.131809,93.8804936 43.3216733,97.7434307 C48.761251,101.229496 54.2946144,104.621343 59.7341921,108.107408 C64.1421257,110.933947 68.4562735,113.666269 72.8642072,116.492808 C76.5218542,118.848258 80.0857155,121.297925 83.8371483,123.464938 C85.9942222,124.595554 88.0575103,126.19726 90.30837,127.327875 Z" id="Shape" fill="#FD405B"></path>
                            <path d="M90.2849304,127.261538 C87.9409686,126.135307 85.9720408,124.539812 83.8155959,123.225875 C80.0652571,120.973412 76.5024352,118.533244 72.8458548,116.28078 C68.4392067,113.465201 64.126317,110.649622 59.7196689,107.927896 C54.2816775,104.455349 48.7499277,101.076654 43.3119364,97.6041066 C37.1238773,93.662296 30.9358182,89.814338 24.7477591,85.8725275 C20.1535941,82.9630959 15.6531874,80.0536642 11.0590224,77.1442326 C10.6839885,76.9565274 10.4027131,76.5811168 9.9339207,76.6749695 C10.0276792,76.5811168 10.0276792,76.3934116 10.1214376,76.2995589 C20.9036618,63.9110114 31.685886,51.6163166 42.4681102,39.2277691 C44.9058304,36.4121901 47.3435507,33.5966111 49.7812709,30.6871795 C52.5002666,33.5027585 54.9379868,36.5060427 57.563224,39.4154743 C67.5953804,50.8654955 77.5337784,62.3155167 87.4721763,73.7655379 C90.191172,76.8626747 90.191172,76.8626747 90.191172,80.8983379 C90.191172,95.9147592 90.191172,111.025033 90.191172,126.041454 C90.3786889,126.416865 90.2849304,126.886128 90.2849304,127.261538 Z M46.9685168,65.037243 C52.3127496,65.037243 56.7193978,60.7200219 56.7193978,55.3704219 C56.7193978,50.0208218 52.3127496,45.6097481 46.9685168,45.6097481 C41.6242839,45.6097481 37.2176358,50.0208218 37.2176358,55.3704219 C37.2176358,60.6261693 41.6242839,64.9433904 46.9685168,65.037243 Z" id="Shape" fill="#FE5E5C"></path>
                            <path d="M149.117789,149.825641 C146.585944,145.193168 142.835063,142.073339 137.58383,140.844316 C136.083478,140.466155 134.583126,140.371614 133.082773,140.371614 C123.611799,140.371614 114.140825,140.371614 104.763623,140.371614 C104.107219,140.371614 103.638359,140.466155 103.075726,140.749775 C100.637654,141.884259 98.1995813,143.018742 95.7615088,144.247765 C95.2926487,144.531386 94.8237885,144.720467 94.8237885,143.869604 C94.8237885,138.575349 94.8237885,133.375635 94.9175606,128.08138 C95.1051046,128.08138 95.2926487,127.98684 95.4801927,127.98684 C101.762918,125.717873 108.045644,123.448907 114.328369,121.17994 C122.674079,118.154652 131.019789,115.034823 139.365499,112.009535 C143.960328,110.30781 148.461385,108.700625 153.056214,107.093441 C159.901571,104.635394 166.653157,102.082807 173.498514,99.6247597 C179.124836,97.5448739 184.751157,95.464988 190.47125,93.4796425 C191.971603,92.9124009 193.378183,92.1560787 195.066079,92.0615385 C195.066079,92.3451593 195.066079,92.6287801 195.066079,92.8178606 C195.066079,111.536833 195.066079,130.350346 195.066079,149.069319 C195.066079,149.35294 195.066079,149.63656 195.066079,149.825641 C181.000276,149.825641 166.934473,149.825641 152.774898,149.825641 C151.555861,149.825641 150.336825,149.825641 149.117789,149.825641 Z" id="Shape" fill="#FD2B54"></path>
                            <path d="M195.066079,92.2465903 C193.378183,92.340862 191.971603,93.1893071 190.47125,93.6606656 C184.751157,95.640371 179.124836,97.7143481 173.498514,99.7883252 C166.653157,102.239389 159.901571,104.784724 153.056214,107.235788 C148.461385,108.932679 143.960328,110.535297 139.365499,112.137916 C131.019789,115.15461 122.674079,118.265576 114.328369,121.28227 C108.045644,123.54479 101.762918,125.80731 95.4801927,128.069831 C95.2926487,128.164103 95.1051046,128.164103 94.9175606,128.164103 C94.9175606,127.787016 94.8237885,127.315657 94.8237885,126.938571 C94.8237885,111.572286 94.8237885,96.3002728 94.8237885,80.933988 C94.8237885,79.425641 94.8237885,79.425641 96.2303689,79.425641 C128.76926,79.425641 161.401924,79.425641 193.940815,79.425641 C194.315903,79.425641 194.690991,79.425641 195.066079,79.5199127 C195.066079,83.7621386 195.066079,88.0043644 195.066079,92.2465903 Z" id="Shape" fill="#FD405A"></path>
                            <path d="M50.5726872,30.1467334 C48.1110558,32.9667205 45.6494245,35.8807072 43.1877931,38.7006943 C32.2998082,51.1086377 21.4118232,63.4225814 10.5238383,75.8305248 C10.4291602,75.9245243 10.4291602,76.1125235 10.334482,76.206523 C10.334482,83.8204883 10.334482,91.4344535 10.334482,98.9544192 C10.334482,118.036332 10.334482,137.118245 10.334482,156.106158 C10.334482,156.388157 10.334482,156.670156 10.334482,157.046154 C7.02074748,156.482156 4.18040358,153.56817 3.70701293,150.090186 C3.6123348,149.432189 3.6123348,148.774192 3.6123348,148.022195 C3.6123348,124.522302 3.6123348,101.02241 3.6123348,77.522517 C3.6123348,76.7705205 3.80169106,76.206523 4.36975984,75.6425256 C17.3406636,60.7905934 30.5009237,45.8446617 43.5665056,30.89873 C45.7441026,28.4547411 48.3004121,28.266742 50.5726872,30.1467334 Z" id="Shape" fill="#FBFAFA"></path>
                            <path d="M177.903885,75.7213643 C177.531081,75.7213643 177.251479,75.8153846 176.878676,75.8153846 C168.304199,75.8153846 159.636523,75.8153846 151.062047,75.8153846 C150.223239,75.8153846 149.757235,75.5333236 149.477632,74.781161 C148.825227,73.2768357 148.07962,71.6784901 147.334013,70.1741649 C147.054411,69.6100429 147.240813,69.4220022 147.706817,69.3279819 C153.67167,68.199738 159.636523,67.071494 165.508175,65.9432501 C167.27899,65.6611891 167.27899,65.6611891 166.533384,64.0628435 C164.203363,59.079766 161.873342,54.0026683 159.543322,49.0195908 C159.170518,48.2674282 159.170518,47.9853672 160.102527,47.7973265 C165.694576,46.7631029 171.379827,45.634859 176.971876,44.6006353 C177.624282,44.506615 177.810684,44.224554 177.531081,43.5664117 C175.760266,38.9594156 174.082651,34.2583991 172.311835,29.651403 C175.10786,28.9932607 177.903885,28.3351184 180.699909,27.4889354 C182.284323,27.0188338 183.775537,26.8307931 185.359951,27.5829558 C185.919156,27.8650168 186.105557,28.1470777 186.012357,28.80522 C185.825955,29.8394437 185.546352,30.8736673 185.359951,31.9078909 C184.521143,36.8909684 183.682336,41.9680661 182.750328,47.0451639 C182.284323,49.6777331 181.725119,52.3103023 181.352315,54.9428715 C180.606709,59.1737864 179.954303,63.3106808 179.208696,67.5415957 C178.835893,70.2681852 178.369889,72.9947747 177.903885,75.7213643 Z" id="Shape" fill="#F4E0E7"></path>
                            <path d="M113.420157,15.4518505 C113.793893,17.5580044 114.167629,19.7598924 114.634799,21.8660462 C114.821667,22.6319203 114.541365,22.9191231 113.887327,23.1105917 C110.149968,24.0679343 107.533817,27.1314308 107.066647,30.865067 C107.066647,31.1522698 106.973213,31.4394726 106.973213,31.6309412 C106.879779,33.3541579 106.879779,33.2584236 105.197967,33.6413607 C100.900004,34.4072348 96.6954756,35.1731089 92.4909467,36.0347173 C91.6500409,36.2261858 91.182871,36.0347173 90.8091351,35.1731089 C87.538946,27.3228993 78.6627184,24.0679343 71.2814344,27.9930391 C71.0011325,28.0887734 70.7208306,28.2802419 70.4405286,28.3759762 C70.4405286,28.1845077 70.4405286,28.0887734 70.5339626,27.8973049 C72.3092081,24.8338084 74.7384915,22.153249 77.3546428,19.7598924 C78.2889825,18.898284 79.3167562,18.2281442 80.34453,17.5580044 C84.081889,15.5475848 88.0061159,14.1115709 92.1172108,13.1542282 C95.200532,12.3883541 98.2838531,12.2926198 101.180306,14.1115709 C103.14242,15.3561163 105.384835,16.0262561 107.720685,16.4091932 C109.682798,16.8878645 111.738346,16.9835988 113.420157,15.4518505 Z" id="Shape" fill="#C4CFD0"></path>
                            <path d="M177.990581,75.8153846 C178.455153,73.0819861 179.012638,70.3485875 179.47721,67.5209338 C180.220524,63.2794533 180.870924,59.1322279 181.614238,54.8907474 C182.078809,52.251604 182.636295,49.6124605 183.007952,46.9733171 C183.844181,41.9777956 184.680409,36.888019 185.609552,31.7982424 C185.79538,30.761436 185.981209,29.7246297 186.259952,28.6878233 C186.352866,28.0280375 186.259952,27.7452721 185.609552,27.4625067 C184.030009,26.7084658 182.636295,26.896976 180.963838,27.3682516 C178.17641,28.2165477 175.388982,28.7820784 172.601554,29.5361194 C172.601554,29.5361194 172.508639,29.5361194 172.508639,29.4418643 C172.229897,28.4993131 171.300754,27.4625067 171.672411,26.6142106 C172.044068,25.8601696 173.437782,25.8601696 174.366925,25.5774043 C176.596867,24.9176184 178.733896,24.2578326 180.963838,23.5980467 C181.521324,23.4095365 181.892981,23.4095365 182.450467,23.6923018 C185.888295,25.2946389 189.233208,26.8027209 192.671037,28.3108028 C193.228522,28.5935682 193.321436,28.8763336 193.228522,29.4418643 C191.741894,37.3592946 190.255265,45.2767249 188.861551,53.2884103 C187.653666,60.4517996 186.538695,67.615189 185.423723,74.7785783 C185.330809,75.5326192 185.052066,75.8153846 184.308752,75.8153846 C182.078809,75.8153846 180.034695,75.8153846 177.990581,75.8153846 Z" id="Shape" fill="#FCFCFC"></path>
                            <path d="M94.8237885,161.713209 C94.8237885,158.802653 94.8237885,155.892096 94.8237885,152.981539 C95.2889447,152.981539 95.7541009,152.88765 96.2192571,152.793762 C100.498694,151.854872 104.6851,150.540427 109.150599,150.915983 C109.615755,151.760983 110.266974,152.04265 111.290317,152.04265 C116.03491,152.04265 120.779503,152.04265 125.524096,152.04265 C126.54744,152.04265 127.29169,151.667094 127.663815,150.728205 C129.059283,150.728205 130.454752,150.728205 131.85022,150.728205 C131.85022,155.798207 131.85022,160.868209 131.85022,165.938211 C130.36172,165.938211 128.966252,165.938211 127.477752,165.938211 C127.942908,163.872655 127.384721,163.121543 125.245003,163.121543 C120.686472,163.121543 116.127941,163.215432 111.569411,163.121543 C109.708786,163.027654 108.685443,164.154322 109.336661,166.0321 C107.196943,166.125989 105.150256,166.125989 103.103569,165.1871 C100.405663,163.872655 97.6147256,162.839877 94.8237885,161.713209 Z M118.360691,159.647653 C120.686472,159.647653 123.012253,159.647653 125.431065,159.647653 C127.012596,159.647653 127.663815,159.08432 127.663815,157.769875 C127.663815,156.549319 127.012596,155.985985 125.524096,155.985985 C120.779503,155.985985 116.127941,155.985985 111.383348,155.985985 C109.98788,155.985985 109.24363,156.643207 109.150599,157.769875 C109.150599,158.990431 109.894849,159.647653 111.383348,159.647653 C113.709129,159.647653 116.03491,159.647653 118.360691,159.647653 Z" id="Shape" fill="#FDCF7E"></path>
                            <path d="M149.008811,149.825641 C150.225771,149.825641 151.442731,149.825641 152.753304,149.825641 C166.795154,149.825641 180.837004,149.825641 194.972467,149.825641 C194.972467,152.187001 194.972467,154.54836 195.066079,156.90972 C193.755507,157.759809 192.351322,157.948718 190.853524,157.948718 C177.84141,157.948718 164.922907,157.948718 151.910793,157.948718 C151.161894,157.948718 150.881057,157.759809 150.881057,157.004174 C150.693833,154.453906 150.038546,152.092546 149.008811,149.825641 Z" id="Shape" fill="#BC1E58"></path>
                            <path d="M195.158231,157.046154 C195.158231,154.685433 195.158231,152.324711 195.066079,149.96399 C195.066079,149.680704 195.066079,149.397417 195.066079,149.208559 C195.066079,130.511648 195.066079,111.720307 195.066079,93.0233951 C195.066079,92.7401086 195.066079,92.456822 195.066079,92.2679643 C195.066079,88.0186662 195.066079,83.769368 195.066079,79.5200699 C196.356199,79.5200699 197.646318,79.5200699 198.936438,79.425641 C199.397195,79.425641 199.581498,79.6144987 199.581498,80.086643 C199.581498,80.2755007 199.581498,80.5587872 199.581498,80.7476449 C199.581498,103.599426 199.581498,126.356778 199.581498,149.208559 C199.581498,152.607998 198.291378,155.157577 195.434685,156.951725 C195.434685,157.046154 195.250382,157.046154 195.158231,157.046154 Z" id="Shape" fill="#F8F6F6"></path>
                            <path d="M150.49776,64.0820513 C151.355777,63.2352786 152.404464,62.5766777 153.167146,61.6358192 C155.931868,58.3428145 156.599215,54.5793805 154.787845,50.7218607 C152.976476,46.770255 149.639742,44.7944522 145.254321,44.7003663 C140.201554,44.6062805 135.148786,44.7003663 130.096019,44.7003663 C129.905348,44.2299371 130.286689,44.1358512 130.47736,43.9476795 C134.195434,39.7138163 137.913508,35.4799531 141.631582,31.2460899 C144.396304,28.047171 147.161026,28.1412569 149.925748,31.2460899 C153.167146,34.915438 156.313209,38.4907003 159.554607,42.1600484 C159.840613,42.4423059 160.031283,42.7245635 160.412624,43.1949927 C158.029243,43.665422 155.741198,44.1358512 153.357817,44.5121946 C156.122539,50.3455173 158.88726,56.1788399 161.651982,62.1062484 C157.838573,62.6707635 154.120499,63.4234503 150.49776,64.0820513 Z" id="Shape" fill="#FE5E5C"></path>
                            <path d="M144.516038,66.0007248 C143.669641,66.1913007 142.823245,66.3818766 141.976848,66.4771646 C141.224496,66.5724525 141.31854,66.7630285 141.600672,67.3347562 C142.823245,69.8122432 143.951773,72.3850181 145.174346,74.862505 C145.456478,75.5295207 145.644566,75.8153846 144.610082,75.8153846 C134.8295,75.8153846 125.142962,75.8153846 115.362379,75.8153846 C114.704071,75.8153846 114.421939,75.5295207 114.327895,74.957793 C113.857675,72.0991542 113.387454,69.3358034 112.917234,66.5724525 C112.82319,66.0960127 112.917234,65.8101489 113.481498,65.9054368 C113.76363,65.9054368 114.045763,65.9054368 114.233851,65.9054368 C123.826345,65.9054368 133.512883,65.9054368 143.105377,65.9054368 C143.575597,65.9054368 143.951773,65.9054368 144.421994,65.9054368 C144.516038,65.9054368 144.516038,65.9054368 144.516038,66.0007248 Z" id="Shape" fill="#FE5E5C"></path>
                            <path d="M112.885463,15.2910689 C111.202926,16.8001217 109.053018,16.7058059 107.090059,16.3285427 C104.846677,15.9512795 102.603294,15.2910689 100.546861,14.0649636 C97.6491589,12.2729635 94.6579827,12.3672793 91.479858,13.1218056 C87.3669907,14.1592794 83.441072,15.4797005 79.7021018,17.4603322 C78.673885,18.026227 77.6456681,18.7807534 76.7109256,19.6295956 C74.0936464,21.9874905 71.75679,24.534017 69.8873049,27.6464382 C69.7938307,27.740754 69.7938307,27.9293856 69.7938307,28.1180172 C68.8590881,28.8725436 67.8308713,29.5327541 66.989603,30.4759121 C66.7091802,30.8531753 66.5222317,30.6645437 66.3352832,30.3815963 C65.4005406,29.2498068 64.3723238,28.212333 63.4375813,27.0805434 C62.97021,26.5146487 63.344107,25.8544381 63.6245298,25.3828591 C64.6527466,23.4022274 65.9613862,21.6102273 67.5504485,20.0068587 C72.7850068,14.4422268 79.1412562,10.9525423 86.1518254,8.31170003 C89.1430016,7.17991048 92.3211263,6.33106832 95.4057767,5.48222615 C96.247045,5.29359456 96.6209421,5.48222615 96.9948391,6.33106832 C99.2382212,12.0843319 105.594471,15.1967531 111.483349,13.404753 C112.418091,13.1218056 112.698514,13.3104372 112.698514,14.2535952 C112.698514,14.5365426 112.885463,14.9138058 112.885463,15.2910689 Z" id="Shape" fill="#FCFCFC"></path>
                            <path d="M151.698082,55.0564103 C151.978857,58.305641 149.264698,61.2841026 145.801806,61.374359 C134.851581,61.374359 123.994946,61.374359 113.04472,61.374359 C112.389579,61.374359 112.108804,61.1938462 112.015212,60.5620513 C111.734437,58.7569231 111.453662,56.9517949 111.079295,55.1466667 C111.640845,55.1466667 112.108804,55.1466667 112.670354,55.1466667 C125.679596,55.1466667 138.688839,55.0564103 151.698082,55.0564103 Z" id="Shape" fill="#BC1E58"></path>
                            <path d="M55.0881057,28.8820513 C56.3110316,28.8820513 57.345815,28.8820513 58.2865272,28.8820513 C59.7916667,28.9759916 61.0145925,29.7275144 61.9553047,30.8547985 C72.5853524,43.0670434 83.2154001,55.2792883 93.9395191,67.3975929 C95.8209435,69.5582208 97.7023678,71.7188488 99.5837922,73.8794767 C99.8660059,74.1612977 100.14822,74.3491784 100.242291,74.9128205 C98.64308,74.9128205 97.0438693,74.9128205 95.4446586,74.9128205 C95.1624449,74.9128205 94.9743025,74.6309995 94.7861601,74.3491784 C81.7102606,59.3187232 68.6343612,44.3822083 55.5584618,29.351753 C55.3703194,29.351753 55.2762482,29.2578127 55.0881057,28.8820513 Z" id="Shape" fill="#FA2A53"></path>
                            <path d="M151.718062,54.1538462 C138.749354,54.1538462 125.780646,54.1538462 112.811938,54.1538462 C112.252138,54.1538462 111.785637,54.1538462 111.225837,54.1538462 C110.852637,52.5009577 110.572737,50.9350633 110.199536,49.2821749 C110.106236,48.8472042 110.292837,48.6732159 110.759337,48.7602101 C110.945937,48.7602101 111.039237,48.7602101 111.225837,48.7602101 C122.608444,48.7602101 133.991051,48.7602101 145.373658,48.7602101 C148.91906,48.8472042 151.438162,50.9350633 151.718062,54.1538462 Z" id="Shape" fill="#FA2A53"></path>
                            <path d="M85.366969,45.036752 C83.4188173,45.036752 81.4706656,45.036752 79.6152831,45.036752 C78.9658992,45.036752 78.5948227,44.8538456 78.2237462,44.3965798 C75.4406724,41.1957192 72.6575986,38.0863118 69.8745248,34.9769043 C69.4106791,34.4281853 69.4106791,34.1538259 69.9672939,33.6965601 C75.4406724,28.2093704 84.8103542,30.5871526 86.9440441,37.9034054 C86.9440441,37.9948586 86.9440441,38.0863118 87.0368133,38.2692181 C87.3151206,39.1837497 87.3151206,40.3726408 87.9645045,40.9213597 C88.6138884,41.3786255 89.8198871,40.8299066 90.6548092,40.6470003 C91.211424,40.5555471 91.3969622,40.7384534 91.4897314,41.1957192 C91.6752696,42.2931571 91.7680387,43.3905951 92.0463461,44.3965798 C92.2318844,45.036752 92.0463461,45.1282051 91.3969622,45.1282051 C89.3560414,45.036752 87.4078898,45.036752 85.366969,45.036752 Z" id="Shape" fill="#FCFCFC"></path>
                            <path d="M131.829356,151.17085 C130.435239,151.17085 129.041122,151.17085 127.647005,151.17085 C127.647005,149.188934 127.182299,148.811426 125.323476,148.811426 C120.67642,148.811426 116.029363,148.811426 111.382306,148.811426 C109.616424,148.811426 108.965836,149.566442 109.24466,151.359604 C104.783485,150.982096 100.601134,152.303374 96.3258419,153.247143 C95.8611362,153.34152 95.3964305,153.435897 94.9317248,153.435897 C94.6529014,149.377688 94.6529014,149.377688 98.2776057,147.773279 C98.2776057,147.773279 98.3705469,147.773279 98.3705469,147.773279 C102.831721,144.847593 107.757602,144.186954 112.962305,144.470085 C118.817597,144.753216 124.76583,144.564462 130.621121,144.470085 C131.736415,144.470085 131.922297,144.847593 131.829356,145.791363 C131.829356,147.490148 131.829356,149.377688 131.829356,151.17085 Z" id="Shape" fill="#F8F6F6"></path>
                            <path d="M127.384721,165.813919 C128.873221,165.813919 130.268689,165.813919 131.757189,165.813919 C131.757189,167.421343 131.757189,169.028767 131.85022,170.63619 C131.85022,171.487179 131.478095,171.487179 130.919908,171.487179 C127.477752,171.487179 124.035596,171.487179 120.593441,171.487179 C115.755817,171.487179 111.011224,171.487179 106.173599,171.487179 C105.522381,171.487179 105.057224,171.392625 104.499037,171.108962 C101.522038,169.690647 98.545038,168.366886 95.5680384,166.948571 C95.009851,166.664908 94.8237885,166.381245 94.8237885,165.813919 C94.9168198,164.395604 94.9168198,162.977289 94.9168198,161.558974 C97.7077568,162.693626 100.498694,163.63917 103.1966,164.96293 C105.243287,165.908474 107.289974,165.908474 109.429693,165.813919 C109.894849,166.381245 110.546067,166.570354 111.290317,166.570354 C116.127941,166.570354 120.872534,166.570354 125.710159,166.570354 C126.361377,166.664908 126.919565,166.381245 127.384721,165.813919 Z" id="Shape" fill="#FCAC05"></path>
                            <path d="M36.2189839,156.955897 C36.2189839,154.157949 36.2189839,151.36 36.123348,148.562051 C36.123348,148.110769 36.3146198,148.020513 36.7927994,148.020513 C39.8531487,148.020513 42.9134979,148.020513 45.9738472,148.020513 C46.3563908,148.020513 46.6432986,148.201026 46.9302063,148.381538 C49.8949197,150.006154 52.9552689,151.630769 56.0156182,153.255385 C56.6850696,153.61641 56.9719773,153.977436 56.8763414,154.699487 C56.7807055,155.511795 56.7807055,156.324103 56.7807055,157.046154 C49.8949197,156.955897 43.0091338,156.955897 36.2189839,156.955897 Z" id="Shape" fill="#FCFCFC"></path>
                            <path d="M36.2193919,157.046154 C43.0385047,157.046154 49.9536613,157.046154 56.7727741,157.046154 C57.1569495,158.966503 56.6767303,160.310747 54.6598096,161.270922 C51.970582,162.519149 49.5694859,164.151446 46.9763022,165.591708 C46.496083,165.87976 46.0158638,166.071795 45.4396007,166.071795 C42.6543293,166.071795 39.8690579,166.071795 37.0837864,166.071795 C36.3154357,166.071795 36.123348,165.87976 36.123348,165.11162 C36.2193919,162.423131 36.2193919,159.734643 36.2193919,157.046154 Z" id="Shape" fill="#F4E0E7"></path>
                            <path d="M98.4361233,38.868937 C100.033714,38.5895054 101.631304,38.3100738 103.228894,37.9374983 C103.886726,37.8443545 104.262629,37.9374983 104.356605,38.6826493 C105.672268,46.2273028 106.98793,53.6788124 108.303593,61.2234659 C108.397569,61.6891853 108.491545,62.0617607 107.833714,62.1549046 C106.048171,62.4343362 104.262629,62.8069117 102.571063,63.1794872 C102.665039,61.4097536 102.007208,59.6400201 101.819256,57.8702866 C101.349376,54.4239634 100.691545,50.9776402 100.12769,47.531317 C99.4698583,44.643857 98.9060029,41.756397 98.4361233,38.868937 Z" id="Shape" fill="#C4CFD0"></path>
                            <path d="M135.462555,166.071795 C135.462555,161.02245 135.462555,155.877835 135.462555,150.82849 C137.165829,150.82849 138.774476,150.82849 140.47775,150.82849 C141.991771,150.82849 143.221913,150.352137 144.073549,148.923077 C146.344581,151.590655 147.290844,154.639316 147.196218,158.06906 C147.101591,158.259601 146.912339,158.450142 146.817713,158.640684 C143.884297,162.546781 140.193871,165.119088 135.462555,166.071795 Z" id="Shape" fill="#FDCF7E"></path>
                            <path d="M124.437252,8.12307692 C124.992684,10.8991453 125.455544,13.5794872 125.918405,16.3555556 C126.381265,18.9401709 126.751553,21.4290598 127.214413,24.0136752 C127.492129,25.6410256 127.399557,25.9282051 125.733261,26.2153846 C124.066964,26.5025641 122.493239,26.7897436 120.826942,27.0769231 C120.641798,25.9282051 120.364082,24.8752137 120.178938,23.7264957 C119.530934,19.8974359 118.975501,16.0683761 118.327497,12.2393162 C118.142353,10.7076923 119.068073,9.27179487 120.456654,8.98461538 C121.937807,8.6017094 123.141243,8.41025641 124.437252,8.12307692 Z" id="Shape" fill="#C4CFD0"></path>
                            <path d="M90.30837,150.728205 C90.30837,155.574187 90.30837,160.420169 90.30837,165.169231 C88.5022026,165.169231 86.6960352,165.169231 84.8898678,165.169231 C84.8898678,160.323249 84.8898678,155.574187 84.8898678,150.728205 C86.6960352,150.825125 88.5022026,150.825125 90.30837,150.728205 Z" id="Shape" fill="#FDCF7E"></path>
                            <path d="M124.625551,7.82009276 C123.270191,8.09700558 122.011643,8.28161413 120.656284,8.55852695 C119.204113,8.83543977 118.139188,10.3123081 118.429622,11.6968722 C119.010491,15.3890431 119.68817,19.081214 120.36585,22.773385 C120.559473,23.8810362 120.753095,24.8963832 121.04353,26.0040345 C119.784982,26.3732516 119.397736,26.188643 119.204113,24.9886875 C118.042377,18.9889098 116.88064,12.8968278 115.718904,6.89705004 C115.42847,5.14326885 115.525281,4.95866031 117.364697,4.68174749 C119.204113,4.3125304 121.04353,4.03561758 122.882946,3.66640049 C123.657437,3.48179195 124.044682,3.75870476 124.141494,4.40483467 C124.238305,5.60479022 124.625551,6.71244149 124.625551,7.82009276 Z" id="Shape" fill="#FBFAFA"></path>
                            <path d="M98.2296821,38.8102564 C98.7611614,41.7483342 99.2040608,44.7811887 99.7355401,47.7192665 C100.267019,51.2260044 100.887079,54.7327424 101.329978,58.2394804 C101.595718,60.0402378 102.127197,61.7462184 102.038617,63.6417525 C99.6469602,64.3999661 99.7355401,64.3999661 99.2926407,61.8409951 C98.318262,55.4909561 97.2553034,49.2356937 96.1923448,42.8856546 C96.0151851,41.9378876 95.9266052,40.9901206 95.7494454,40.0423535 C95.6608655,39.4736933 95.8380253,39.3789166 96.1923448,39.2841399 C96.9009839,39.0945865 97.5210431,38.9050331 98.2296821,38.8102564 Z" id="Shape" fill="#FBFAFA"></path>
                            <path d="M153.524229,28.9244252 C154.678466,28.9244252 155.640331,28.8290839 156.698381,28.9244252 C158.044991,29.0197665 159.199228,29.5918141 160.161093,30.5452269 C163.239058,34.0728542 166.413211,37.6004815 169.491176,41.1281088 C169.587363,41.2234501 169.587363,41.4141327 169.779736,41.6048152 C168.433126,41.8908391 167.278889,42.0815216 166.028465,42.3675454 C165.643719,42.4628867 165.258973,42.4628867 164.874228,42.0815216 C161.122957,37.7911641 157.467873,33.5961478 153.716602,29.3057903 C153.620416,29.3057903 153.620416,29.210449 153.524229,28.9244252 Z" id="Shape" fill="#FA2A53"></path>
                            <path d="M135.556988,165.828183 C140.278657,164.890151 143.961559,162.357466 146.79456,158.511537 C146.888993,158.323931 147.07786,158.136324 147.172294,157.948718 C147.64446,164.233529 142.545058,170.51834 136.218022,171.456372 C135.556988,171.550175 135.462555,171.456372 135.462555,170.79975 C135.556988,169.205096 135.462555,167.51664 135.556988,165.828183 Z" id="Shape" fill="#FCAC05"></path>
                            <path d="M60.5765917,157.046154 C60.3888281,154.338462 60.3888281,154.338462 63.1114008,154.338462 C68.7443101,154.338462 74.4711011,154.338462 80.1040103,154.338462 C81.0428285,154.338462 81.4183558,154.518974 81.2305921,155.421538 C81.1367103,155.963077 81.2305921,156.504615 81.1367103,157.046154 C74.3772193,157.046154 67.4299646,157.046154 60.5765917,157.046154 Z" id="Shape" fill="#F8F6F6"></path>
                            <path d="M60.552317,157.046154 C67.4052037,157.046154 74.3519656,157.046154 81.2048524,157.046154 C81.3926027,159.753846 81.3926027,159.753846 78.9518485,159.753846 C73.3193389,159.753846 67.592954,159.753846 61.9604444,159.753846 C60.7400673,159.753846 60.3645667,159.44142 60.552317,158.087574 C60.552317,157.87929 60.552317,157.462722 60.552317,157.046154 Z" id="Shape" fill="#F4E0E7"></path>
                            <path d="M102.951542,68.0556405 C104.729816,67.6736223 106.508091,67.1960996 108.197451,66.8140814 C108.553106,66.7185769 108.730934,66.9095859 108.819847,67.2916041 C109.264416,69.9657313 109.708985,72.6398585 110.153553,75.2184812 C110.242467,75.6004994 110.064639,75.7915085 109.708985,75.7915085 C108.464193,75.7915085 107.130487,75.887013 105.885695,75.6960039 C104.907644,75.5049948 104.551989,74.4544449 104.018506,73.6904085 C103.662852,71.8758222 103.307197,69.9657313 102.951542,68.0556405 Z" id="Shape" fill="#FCCC4D"></path>
                            <path d="M88.2260531,54.1538462 C86.4795937,52.4100729 84.7331343,50.6662997 83.0837004,49.0097152 C83.180726,48.6609605 83.4718025,48.7481492 83.6658536,48.7481492 C86.7706703,48.7481492 89.8754869,48.7481492 92.9803036,48.7481492 C93.6594823,48.7481492 93.9505589,48.9225265 94.0475844,49.5328471 C94.3386609,51.102243 94.6297375,52.5844503 94.8237885,54.1538462 C92.6892271,54.1538462 90.4576401,54.1538462 88.2260531,54.1538462 Z" id="Shape" fill="#FA2A53"></path>
                            <path d="M143.590308,148.905838 C142.875781,150.272613 141.714673,150.728205 140.196301,150.728205 C138.588614,150.728205 137.070243,150.728205 135.462555,150.728205 C135.462555,148.81472 135.462555,146.901235 135.462555,144.987749 C135.462555,144.441039 135.641187,144.349921 136.087767,144.441039 C139.12451,145.078868 141.714673,146.354525 143.590308,148.905838 Z" id="Shape" fill="#FCFCFC"></path>
                            <path d="M190.342954,65.8871795 C193.089867,69.0680607 195.742059,72.1525517 198.29953,75.2370426 C198.394251,75.3334329 198.488972,75.5262136 198.678414,75.8153846 C196.973434,75.8153846 195.363174,75.8153846 193.847636,75.8153846 C193.468751,75.8153846 193.279309,75.6226039 193.089867,75.3334329 C192.616261,74.7550909 192.237377,74.0803585 191.66905,73.6947971 C188.827415,71.5742096 189.585185,68.8752801 190.342954,65.8871795 Z" id="Shape" fill="#FA2A53"></path>
                            <path d="M90.122946,150.728205 C88.3614177,150.728205 86.5998894,150.728205 84.9310732,150.728205 C84.9310732,149.375813 84.8383612,148.023421 84.9310732,146.671028 C85.0237852,145.138317 85.9509053,144.326882 87.7124336,144.417041 C89.2885379,144.417041 90.215658,145.228476 90.30837,146.761188 C90.122946,148.11358 90.122946,149.465972 90.122946,150.728205 Z" id="Shape" fill="#FCFCFC"></path>
                            <path d="M84.9314686,165.169231 C86.7099022,165.169231 88.4883357,165.169231 90.2667693,165.169231 C90.2667693,166.451133 90.360371,167.824601 90.2667693,169.106503 C90.2667693,170.663099 89.3307516,171.487179 87.7395216,171.487179 C86.0546898,171.487179 85.0250704,170.754664 84.9314686,169.198068 C84.8378669,167.824601 84.9314686,166.451133 84.9314686,165.169231 Z" id="Shape" fill="#FCAC05"></path>
                            <path d="M87.5991189,55.0564103 C89.6442562,55.0564103 91.6893934,55.0564103 93.7345307,55.0564103 C94.0902067,56.9467829 94.3569637,58.7471378 94.8015588,60.6375105 C94.8904778,61.177617 94.7126398,61.2676347 94.2680447,61.3576525 C93.3788546,61.4476702 92.7564216,61.177617 92.2229075,60.457475 C90.6223653,58.5671023 89.1107421,56.8567652 87.5991189,55.0564103 Z" id="Shape" fill="#BC1E58"></path>
                            <path d="M102.692717,67.7107183 C103.115229,69.540201 103.537741,71.3696837 103.854626,73.1076923 C102.798345,72.1014768 101.742064,71.0952613 100.791412,70.0890458 C100.263272,69.540201 100.474528,68.8084079 100.263272,68.2595631 C100.157644,68.0766148 100.474528,67.9851407 100.685784,67.9851407 C101.319552,67.8936665 101.953321,67.6192441 102.692717,67.7107183 Z" id="Shape" fill="#F8F6F6"></path>
                            <path d="M47.8634361,64.9846154 C42.4188834,64.9846154 37.9295154,60.4978304 37.9295154,55.0564103 C37.9295154,49.6149901 42.4188834,45.1282051 47.8634361,45.1282051 C53.3079888,45.1282051 57.7973568,49.6149901 57.7973568,55.0564103 C57.7973568,60.4978304 53.3079888,64.9846154 47.8634361,64.9846154 Z M42.9919942,58.0157791 C44.1382159,60.1159763 46.4306591,61.166075 48.8186208,60.7842209 C51.111064,60.4023669 53.1169519,58.4930966 53.4990258,56.2019724 C53.9766181,53.7199211 52.9259149,51.4287968 50.8245086,50.1877712 C48.5320654,48.7558185 45.6665114,49.0422091 43.756142,50.9514793 C41.8457726,52.956213 41.5592172,55.7246548 42.9919942,58.0157791 Z" id="Shape" fill="#020202"></path>
                            <path d="M118.806729,159.753846 C116.425124,159.753846 114.043519,159.753846 111.56665,159.753846 C110.042422,159.753846 109.185044,159.105851 109.280309,157.902433 C109.280309,156.791584 110.042422,156.14359 111.56665,156.14359 C116.425124,156.14359 121.188334,156.14359 126.046809,156.14359 C127.571036,156.14359 128.237885,156.699014 128.237885,157.902433 C128.237885,159.198422 127.571036,159.753846 125.951545,159.753846 C123.569939,159.753846 121.188334,159.753846 118.806729,159.753846 Z" id="Shape" fill="#020202"></path>
                            <path d="M128.081404,166.141223 C127.604311,166.696647 126.93638,166.974359 126.173031,166.974359 C121.21126,166.974359 116.344909,166.974359 111.383138,166.974359 C110.619789,166.974359 109.951858,166.789218 109.474765,166.233794 C108.806835,164.474951 109.85644,163.364103 111.764813,163.364103 C116.440327,163.456673 121.115842,163.364103 125.791356,163.364103 C127.985985,163.364103 128.558497,164.104668 128.081404,166.141223 Z" id="Shape" fill="#020202"></path>
                            <path d="M109.336933,151.410874 C109.050554,149.660202 109.71877,148.923077 111.532498,148.923077 C116.305466,148.923077 121.078434,148.923077 125.851402,148.923077 C127.856048,148.923077 128.237885,149.38378 128.237885,151.226593 C127.856048,152.148 127.092373,152.516562 126.04232,152.516562 C121.173893,152.516562 116.305466,152.516562 111.437038,152.516562 C110.482445,152.608703 109.814229,152.332281 109.336933,151.410874 Z" id="Shape" fill="#020202"></path>
                            <path d="M42.4676945,57.7623735 C40.9863437,55.701733 41.2826138,53.0139411 43.3565049,51.2220797 C45.3316393,49.4302184 48.1955842,49.1614392 50.5657454,50.4157421 C50.7632589,54.4474301 46.7142334,57.8519666 42.4676945,57.7623735 Z" id="Shape" fill="#FCCC4D"></path>
                            <path d="M42.4449339,58.4899854 C46.6358156,58.5868927 50.6317726,54.9044166 50.4368478,50.5435897 C52.5810199,51.8033842 53.6531059,54.1291585 53.1657941,56.6487474 C52.7759446,58.9745218 50.7292349,60.912667 48.3901382,61.3002961 C45.9535791,61.6879252 43.6144823,60.525038 42.4449339,58.4899854 Z" id="Shape" fill="#FCAC05"></path>
                        </g>
                    </g>
                </g>
            </g>
        </g>
    </g>
</svg>